<svg width="100" height="100" viewBox="0 0 100 100" fill="none" xmlns="http://www.w3.org/2000/svg">
<rect width="100" height="100" rx="50" fill="#444444"/>
<path d="M65.5173 19.1537L65.0077 20.4076L61.4866 28.9793C61.4403 28.9565 61.394 28.9109 61.3476 28.8654C60.0736 27.9535 58.591 27.2012 57.0158 26.654L60.1199 19.1309H65.5173V19.1537Z" fill="#0CCD93"/>
<path d="M43.1863 73.6391L40.3833 80.4555H34.9859L35.4955 79.2017L38.8544 71.0175C40.1053 72.0661 41.5647 72.9552 43.1863 73.6391Z" fill="#0CCD93"/>
<path d="M35.8661 40.6288C35.8661 32.8549 43.2094 28.2271 50.2747 28.2271C58.2897 28.2271 64.0346 32.9689 64.5906 40.0132C64.6369 40.5376 64.6369 41.5635 64.6369 41.5635H57.9423C57.9423 41.5635 57.9423 40.7883 57.8264 40.15C57.8264 40.15 57.7569 39.8081 57.7569 39.7853C57.7338 39.6941 57.7106 39.5801 57.6874 39.4889C57.6643 39.3749 57.6411 39.2837 57.5948 39.1697C57.5716 39.0558 57.5253 38.9646 57.5021 38.8734C57.0852 37.7563 56.367 36.8216 55.3941 36.1149C55.3015 36.0465 55.2088 35.9781 55.1161 35.9325C55.0235 35.8869 54.954 35.8185 54.8613 35.7729C54.7918 35.7274 54.7223 35.6818 54.6528 35.659C54.6065 35.6362 54.537 35.5906 54.4907 35.5678C54.3517 35.4994 54.1896 35.431 54.0506 35.3626C53.9116 35.2942 53.7494 35.2258 53.5873 35.1802C52.8923 34.9294 52.1279 34.7471 51.2939 34.6787C50.9465 34.6331 50.5758 34.6331 50.182 34.6331C46.4293 34.6331 42.5608 36.8672 42.5608 40.606C42.5608 41.5179 42.5608 44.1168 46.7999 45.6442L44.3908 51.5259C38.7386 49.4513 35.8661 45.8037 35.8661 40.6288Z" fill="white"/>
<path d="M65.8878 61.1919C65.0539 68.0538 59.0774 72.6817 51.0391 72.6817C47.0084 72.6817 43.2094 71.3822 40.3369 69.0113C37.5803 66.7544 35.7966 63.5856 35.5418 60.4851C35.4723 59.71 35.5418 58.8893 35.5418 58.8893H42.0975C42.0975 58.8893 42.1206 59.4137 42.2133 59.938C42.306 60.3711 42.445 60.8955 42.5376 61.1235C42.5608 61.1691 42.5839 61.2146 42.5839 61.283C42.6534 61.4882 42.7461 61.6934 42.8619 61.8986C42.8851 61.9442 42.9083 61.9898 42.9314 62.0581C42.9546 62.1037 42.9777 62.1493 43.0241 62.2177C43.1399 62.4001 43.2557 62.6053 43.3947 62.7877C43.441 62.8788 43.5105 62.9472 43.58 63.0384C44.0202 63.6084 44.5761 64.1555 45.2016 64.6114C45.2479 64.657 45.2942 64.6798 45.3637 64.7254C45.4101 64.771 45.4564 64.7938 45.5259 64.8394C46.3367 65.3866 47.2864 65.8197 48.352 66.1161C49.1859 66.344 50.0662 66.458 51.016 66.458C54.5602 66.458 58.5909 64.9306 59.2627 60.6219C59.587 56.4728 56.1123 54.6262 53.3788 53.8055L55.7879 47.9238C59.0774 48.9725 61.6255 50.4999 63.3397 52.4149C65.4709 54.7858 66.328 57.7495 65.8878 61.1919Z" fill="white"/>
<path d="M55.7185 43.2504L55.1625 44.5727L50.7612 55.2874L47.7497 62.6281C47.6107 62.5597 47.4949 62.4685 47.3791 62.4001C47.3791 62.4001 47.3096 62.3545 47.2864 62.3545L47.1474 62.2406C44.4603 60.3712 44.8541 56.9288 44.9699 56.2677C44.9699 56.1993 44.9931 56.1309 45.0163 56.0625L45.7575 54.2615L50.1357 43.5924L52.7765 37.1863L53.2861 37.4143C55.9269 38.7822 55.7185 43.2504 55.7185 43.2504Z" fill="#0CCD93"/>
</svg>
